# xmcd CD database file
#
# Track frame offsets:
#	150
#	15870
#	33099
#	46701
#	63054
#	78379
#	97697
#	114146
#	130131
#	144683
#	157264
#
# Disc length: 2244 seconds
#
# Revision: 1
# Processed by: cddbd v1.5.2PL0 Copyright (c) Steve Scherf et al.
# Submitted via: CDex 1.51
#
DISCID=7408c20b
DTITLE=Randy Rogers Band - Nothing Shines Like Neon
DYEAR=2016
DGENRE=Country
TTITLE0=Randy Rogers Band - San Antone
TTITLE1=Randy Rogers Band - Rain And The Radio
TTITLE2=Randy Rogers Band - Neon Blues
TTITLE3=Randy Rogers Band - Things I Need To Quit
TTITLE4=Randy Rogers Band with Alison Krauss and Dan Tyminski - Look Out Younder
TTITLE5=Randy Rogers Band - Tequila Eyes
TTITLE6=Randy Rogers Band with Jerry Jeff Walker - Takin' It As It Comes
TTITLE7=Randy Rogers Band - Old Moon New
TTITLE8=Randy Rogers Band - Meet Me Tonight
TTITLE9=Randy Rogers Band with Jamey Johnson - Actin' Crazy
TTITLE10=Randy Rogers Band - Pour One For The Poor One
EXTD=YEAR: 2016
EXTT0=
EXTT1=
EXTT2=
EXTT3=
EXTT4=
EXTT5=
EXTT6=
EXTT7=
EXTT8=
EXTT9=
EXTT10=
PLAYORDER=
